<svg viewBox="0 0 192.76 102.05" xmlns="http://www.w3.org/2000/svg" xmlns:xlink="http://www.w3.org/1999/xlink" id="Layer_1" overflow="hidden"><defs></defs><path d="M99.55 44.26C98.58 43.47 96.39 42.47 94.19 42.47 89.12 42.47 86.13 46.1 86.13 50.91 86.13 56.09 89.7 59.58 94.19 59.58 96.42 59.58 98.17 58.88 99.37 58.06L100.48 59.76C99.1 60.7 96.67 61.63 94.04 61.63 86.72 61.63 83 56.62 83 50.97 83 45.82 87.04 40.43 94.39 40.43 97.32 40.43 99.37 41.46 100.72 42.51L99.55 44.27Z" fill="#011E41"/><path d="M104.47 48.45 105.52 47.34C106.14 46.72 107.1 46.29 107.72 46.29 108.34 46.29 109.33 46.76 110.15 47.73L108.95 49.43C108.31 49.11 107.66 48.81 106.99 48.81 105.64 48.81 104.53 50.16 104.53 53.41L104.53 61.29 101.89 61.29 101.89 46.65 104.47 46.65 104.47 48.47Z" fill="#011E41"/><path d="M109.19 53.78C109.19 49.04 112.71 46.28 116.4 46.28 120.09 46.28 123.63 49.03 123.63 53.78 123.63 58.53 120.73 61.63 116.4 61.63 112.07 61.63 109.19 58.32 109.19 53.78ZM112.03 53.78C112.03 56.53 112.97 59.76 116.39 59.76 119.81 59.76 120.78 56.54 120.78 53.78 120.78 51.02 119.7 48.16 116.39 48.16 113.08 48.16 112.03 51.15 112.03 53.78Z" fill="#011E41"/><path d="M135.29 46.63C136.73 50.12 138.16 53.63 139.57 57.82L139.63 57.82C140.77 53.51 141.97 49.94 143.14 46.34L145.57 46.75 140.41 61.28 138.56 61.28C137.1 57.65 135.6 54.02 134.17 49.86L134.11 49.86C132.7 54.02 131.27 57.65 129.83 61.28L128.1 61.28 123.03 46.99 125.61 46.35C126.81 49.95 128.04 53.53 129.21 57.83L129.27 57.83C130.68 53.64 132.11 50.13 133.55 46.64L135.28 46.64Z" fill="#011E41"/><path d="M147.7 54.13C147.67 57.06 149.75 59.75 152.65 59.75 154 59.75 155.64 59.25 156.66 58.49L157.42 59.93C155.9 61.01 154.08 61.63 152.56 61.63 147.99 61.63 144.97 58.82 144.97 53.66 144.97 48.5 148.6 46.28 151.91 46.28 156.36 46.28 157.86 50.29 157.56 54.13L147.69 54.13ZM155.17 52.37C155.17 50.09 154.2 48.15 151.89 48.15 149.08 48.15 147.97 50.49 147.88 52.37L155.17 52.37Z" fill="#011E41"/><path d="M55.69 34.2C55.57 33.97 55.36 33.96 55.22 34.19L35.23 67.85C35.09 68.08 35.12 68.1 35.29 67.89L55.07 44C55.24 43.8 55.27 43.82 55.14 44.05L41.45 67.85C41.32 68.08 41.35 68.1 41.52 67.9L57.72 48.33C57.89 48.13 57.92 48.15 57.8 48.38L47.15 67.84C47.02 68.07 47.06 68.1 47.23 67.89L60.15 52.28C60.32 52.08 60.59 52.08 60.76 52.28L73.29 67.88C73.46 68.09 73.49 68.07 73.37 67.83L55.71 34.19Z" fill="#F5A800"/></svg>